<?xml version="1.0" encoding="utf-8"?>
<!-- Generator: Adobe Illustrator 20.0.0, SVG Export Plug-In . SVG Version: 6.00 Build 0)  -->
<svg version="1.1" id="Layer_1" xmlns="http://www.w3.org/2000/svg" xmlns:xlink="http://www.w3.org/1999/xlink" x="0px" y="0px"
	 viewBox="0 0 146.7 35.9" style="enable-background:new 0 0 146.7 35.9;" xml:space="preserve">
<style type="text/css">
	.st0{fill:none;}
	.st1{enable-background:new    ;}
	.st2{fill:#FFFFFF;}
</style>
<rect x="-0.2" y="3.2" class="st0" width="176.8" height="35.8"/>
<g class="st1">
	<path class="st2" d="M1.9,35.4c-0.2,0.6-0.6,0.6-1,0.1c-0.8-0.8-1.4-2.7-0.1-6.1C2.9,24,12,9.1,18,0.9c0.5-0.7,1.1-1,1.8-0.3
		c2.2,1.9,2.8,3.9,1.3,8.3c-1.8,5.4-3.8,11.9-5.9,19.8c6.1-10,14.3-18.3,20.4-27.9c0.5-0.8,1-0.8,1.6-0.2c2.2,2.3,1.7,5.4,0.2,8.2
		C33.6,16,28,27.3,25.2,35.4C25,36,24.8,36,24.3,35.6c-0.9-0.7-1.6-2.4-0.6-6.1c0.8-3.3,4.4-11.1,8.1-18.1c-6.5,7.6-13,16.2-17,23.7
		c-0.3,0.6-0.6,0.7-1,0.4c-1.8-1.3-2.7-3.3-2.1-6.8c0.5-3.2,2.4-10.9,4.8-18.4C11.5,17.8,5.2,27.9,1.9,35.4z"/>
	<path class="st2" d="M68.3,35.6c-4.6,0-5.8-3.5-4.2-8.2C66,21.9,70.9,16,70,15.6c-0.7-0.2-3.8,1.2-7.4,5.2
		c-3.2,3.5-5.9,8.9-8.2,14.2c-0.2,0.4-0.6,0.7-1.1,0.2c-1-1.1-1.4-2.9-0.4-5.7c0.6-1.7,1.8-4.6,3.5-7.6c-1.5,1-3.2,1.5-5.2,1.4
		c-1.1,4.8-4.7,10.5-8.8,11.9c-2,0.7-4.9,0.6-7.1-2.4c-2.5-3.3-1.6-8.2,0.9-12.6c2.2-3.8,5.5-7,8.9-7.3c1.7-0.2,2.6,0.3,3.8,1.8
		c1.3,1.8,3,2.1,2.7,6.2c0,0.3,0,0.7-0.1,1c3.5-0.1,7.2-4.1,10.2-8.7c0.4-0.6,0.8-0.6,1.2-0.1c0.8,1.4,0.8,3.3,0.2,5.3
		c2.5-2.6,6.2-5.7,8.1-5.4c1.8,0.2,3.6,3.1,2.2,5.9c-1.2,2.5-3.9,6.6-5.2,9.5c-1.5,3.2-1.2,5.7,1,5.7c2.2-0.1,4.9-3.7,7.1-7.7
		c0.2-0.4,0.8-0.4,1,0c0.3,0.7,0.3,1.8-0.6,3.5C75.1,32.8,71.6,35.6,68.3,35.6z M43.9,16.9c-1.6,1.3-3.1,3.2-4.4,5.3
		c-2.5,4.2-3.2,9.4-1.7,10.6c1.5,1.2,5-0.7,7.7-5.8c1-1.8,1.6-3.4,2.1-4.8C45.6,21.3,44,19.1,43.9,16.9z M48.3,16.9
		c-0.3-1.8-1.5-1.5-1.7,0.2c-0.2,1.2,0.2,2.9,1.3,3.8C48.3,19.3,48.5,17.9,48.3,16.9z"/>
	<path class="st2" d="M128.5,29.8c-1.6,3.1-5.2,6-8.3,5.9c-4.8-0.1-6.5-3.9-4.5-8.4c2-4.7,7-10.9,6.2-11.2c-0.4-0.2-2.4,0.6-6,4.1
		c-4.6,4.6-7.3,9.9-9.7,15.1c-0.3,0.7-0.8,0.8-1.3,0.3c-0.9-0.9-1.6-3-0.1-7c1.8-4.6,7.8-12.3,6.7-12.8c-0.6-0.2-3.4,1.3-6.9,5.2
		c-3.2,3.5-5.9,8.7-8.2,13.9c-0.2,0.4-0.5,0.6-1.1,0.2c-1.2-1-1.5-2.9-0.6-5.7c0.6-1.8,2-4.7,3.6-7.8c-1.6,1.1-3.2,1.6-5.2,1.4
		c-1.1,4.8-4.6,10.6-8.8,12c-2,0.7-4.9,0.6-7.1-2.4c-2.4-3.2-1.6-8.2,1-12.6c2.1-3.8,5.5-7.1,8.9-7.3c1.7-0.1,2.6,0.4,3.8,1.9
		c1.3,1.7,3,2,2.7,6.2c0,0.3,0,0.6-0.1,0.9c3.6-0.1,7.2-4.2,10.1-8.7c0.3-0.6,0.9-0.6,1.2,0c0.9,1.5,0.7,3.6-0.1,5.8
		c2.5-2.8,6.6-6.1,8.6-6c1.9,0.1,2.9,3,2.2,5.5c2.6-2.5,6.4-5.2,8.2-5.1c2,0.1,2.5,3.4,1.3,6c-1.1,2.5-3.8,6.2-5.1,9
		c-1.6,3.2-0.8,5.8,1.2,5.7c2.2-0.1,4.8-3.8,6.9-7.7c0.3-0.5,0.7-0.4,1,0S129.2,28.4,128.5,29.8z M85.8,17c-1.5,1.3-3.1,3.2-4.3,5.3
		c-2.5,4.2-3.2,9.3-1.7,10.6c1.5,1.3,4.9-0.7,7.7-5.8c1-1.7,1.6-3.4,2-4.8C87.5,21.2,85.9,19.2,85.8,17z M90.2,17
		c-0.3-1.8-1.5-1.5-1.7,0.2c-0.2,1.2,0.2,2.8,1.3,3.8C90.2,19.3,90.4,18,90.2,17z"/>
	<path class="st2" d="M144.8,23.4c-1.2,4.8-4.7,10.4-8.8,11.8c-2,0.7-4.8,0.4-7.1-2.5c-2.5-3.2-1.6-8.1,0.9-12.6
		c2.1-3.8,5.5-7.1,8.9-7.3c1.7-0.1,2.7,0.4,3.8,1.9c1.3,1.7,3,2.1,2.6,6.2c-0.1,0.4-0.1,0.8-0.1,1.3c0.3,0,0.7-0.1,1.1-0.1
		c0.4,0,0.4,0.3,0.2,0.6C145.9,23.1,145.3,23.3,144.8,23.4z M140,22c-1.2-0.9-2.5-2.9-2.6-4.9c-1.5,1.3-3.1,3.1-4.3,5.3
		c-2.4,4.3-3.2,9.4-1.7,10.6c1.6,1.3,5-0.7,7.7-5.8c0.8-1.6,1.5-3.1,2-4.5C140.7,22.5,140.4,22.3,140,22z M141.9,17
		c-0.3-1.8-1.4-1.5-1.7,0.2c-0.3,1.5,0.3,3.1,1.2,4C141.9,19.4,142.1,18,141.9,17z"/>
</g>
</svg>
