<?xml version="1.0" encoding="utf-8"?>
<!-- Generator: Adobe Illustrator 20.0.0, SVG Export Plug-In . SVG Version: 6.00 Build 0)  -->
<svg version="1.1" id="Layer_1" xmlns="http://www.w3.org/2000/svg" xmlns:xlink="http://www.w3.org/1999/xlink" x="0px" y="0px"
	 viewBox="0 0 439 144" style="enable-background:new 0 0 439 144;" xml:space="preserve">
<style type="text/css">
	.st0{fill:#FFFFFF;}
</style>
<g>
	<circle class="st0" cx="155.7" cy="9" r="8"/>
	<circle class="st0" cx="189.1" cy="9" r="8"/>
	<circle class="st0" cx="224" cy="9" r="8"/>
</g>
<path class="st0" d="M32.3,62.3c0-7-0.1-12.8-0.6-18.5h10.9l0.6,11h0.4c3.8-6.5,10.2-12.5,21.4-12.5c9.3,0,16.4,5.6,19.3,13.7h0.3
	c2.1-3.8,4.8-6.8,7.6-8.9c4.1-3.1,8.6-4.8,15.1-4.8c9,0,22.4,5.9,22.4,29.6v40.2h-12.1V73.5c0-13.1-4.8-21-14.8-21
	c-7.1,0-12.5,5.2-14.7,11.3c-0.6,1.7-1,3.9-1,6.2v42.2H75V71.2c0-10.9-4.8-18.8-14.2-18.8c-7.8,0-13.4,6.2-15.4,12.4
	c-0.7,1.8-1,3.9-1,6.1v41.2H32.3V62.3z"/>
<path class="st0" d="M149.9,112.1V43.9h12.4v68.2H149.9z"/>
<path class="st0" d="M182.9,112.1V43.9h12.4v68.2H182.9z"/>
<path class="st0" d="M215.9,112.1V43.9h12.4v68.2H215.9z"/>
<path class="st0" d="M247.2,99.4c3.7,2.4,10.2,4.9,16.4,4.9c9,0,13.3-4.5,13.3-10.2c0-5.9-3.5-9.2-12.7-12.5
	c-12.3-4.4-18-11.1-18-19.3c0-11,8.9-20,23.5-20c6.9,0,13,2,16.8,4.2l-3.1,9c-2.7-1.7-7.6-3.9-14-3.9c-7.3,0-11.4,4.2-11.4,9.3
	c0,5.6,4.1,8.2,13,11.6c11.8,4.5,17.9,10.4,17.9,20.6c0,12-9.3,20.4-25.5,20.4c-7.5,0-14.4-1.8-19.2-4.7L247.2,99.4z"/>
<path class="st0" d="M303,99.4c3.7,2.4,10.2,4.9,16.4,4.9c9,0,13.3-4.5,13.3-10.2c0-5.9-3.5-9.2-12.7-12.5
	c-12.3-4.4-18-11.1-18-19.3c0-11,8.9-20,23.5-20c6.9,0,13,2,16.8,4.2l-3.1,9c-2.7-1.7-7.6-3.9-14-3.9c-7.3,0-11.4,4.2-11.4,9.3
	c0,5.6,4.1,8.2,13,11.6c11.8,4.5,17.9,10.4,17.9,20.6c0,12-9.3,20.4-25.5,20.4c-7.5,0-14.4-1.8-19.2-4.7L303,99.4z"/>
<path class="st0" d="M365.1,43.9L380,84.2c1.6,4.5,3.2,9.9,4.4,14h0.3c1.3-4.1,2.7-9.3,4.4-14.2l13.5-40h13.1l-18.6,48.6
	c-8.9,23.4-14.9,35.4-23.4,42.7c-6.1,5.4-12.1,7.5-15.2,8l-3.1-10.4c3.1-1,7.2-3,10.9-6.1c3.4-2.7,7.6-7.5,10.4-13.8
	c0.6-1.3,1-2.3,1-3s-0.3-1.7-0.8-3.2l-25.2-62.9H365.1z"/>
</svg>
