<?xml version="1.0" encoding="utf-8"?>
<!-- Generator: Adobe Illustrator 20.0.0, SVG Export Plug-In . SVG Version: 6.00 Build 0)  -->
<svg version="1.1" id="Layer_1" xmlns="http://www.w3.org/2000/svg" xmlns:xlink="http://www.w3.org/1999/xlink" x="0px" y="0px"
	 viewBox="0 0 124.5 28.8" style="enable-background:new 0 0 124.5 28.8;" xml:space="preserve">
<style type="text/css">
	.st0{fill:#FFFFFF;}
</style>
<g>
	<path class="st0" d="M40,2.7c0.9-0.2,1.9-0.3,3.1-0.4c1.1-0.1,2.2-0.1,3.3-0.1c1.1,0,2.3,0.1,3.4,0.3C50.9,2.6,52,3,52.9,3.6
		s1.7,1.3,2.3,2.3c0.6,1,0.9,2.3,0.9,3.9c0,1.5-0.3,2.7-0.8,3.7c-0.5,1-1.2,1.8-2,2.5c-0.8,0.6-1.8,1.1-2.9,1.4
		c-1.1,0.3-2.2,0.4-3.3,0.4c-0.1,0-0.3,0-0.5,0c-0.2,0-0.5,0-0.8,0c-0.3,0-0.5,0-0.8,0c-0.3,0-0.4,0-0.5-0.1v8H40V2.7z M46.7,6.1
		c-0.4,0-0.9,0-1.3,0c-0.4,0-0.7,0.1-1,0.1v7.5c0.1,0,0.2,0,0.4,0.1c0.2,0,0.4,0,0.6,0c0.2,0,0.4,0,0.6,0c0.2,0,0.3,0,0.4,0
		c0.6,0,1.2-0.1,1.8-0.2c0.6-0.1,1.1-0.3,1.6-0.6c0.5-0.3,0.8-0.7,1.1-1.2c0.3-0.5,0.4-1.2,0.4-2.1c0-0.7-0.1-1.3-0.4-1.8
		c-0.3-0.5-0.6-0.9-1-1.1c-0.4-0.3-0.9-0.5-1.5-0.6C47.8,6.1,47.3,6.1,46.7,6.1z"/>
	<path class="st0" d="M61,14.1c0-3.8,0.8-6.8,2.5-8.9C65.3,3.1,67.7,2,70.9,2c1.6,0,3.1,0.3,4.3,0.9c1.2,0.6,2.3,1.4,3.1,2.4
		c0.8,1.1,1.4,2.3,1.8,3.8c0.4,1.5,0.6,3.1,0.6,4.9c0,3.9-0.9,6.8-2.6,8.9c-1.7,2.1-4.1,3.1-7.2,3.1c-1.7,0-3.1-0.3-4.4-0.9
		c-1.2-0.6-2.2-1.4-3.1-2.4c-0.8-1.1-1.4-2.3-1.8-3.8C61.2,17.5,61,15.9,61,14.1z M65.8,14.1c0,1.2,0.1,2.2,0.3,3.2
		c0.2,1,0.5,1.8,0.9,2.5c0.4,0.7,0.9,1.3,1.6,1.6S70,22,70.9,22c1.6,0,2.8-0.6,3.7-1.9c0.9-1.3,1.3-3.3,1.3-6.1
		c0-1.1-0.1-2.2-0.3-3.1c-0.2-1-0.5-1.8-0.9-2.5s-0.9-1.3-1.6-1.7c-0.6-0.4-1.4-0.6-2.3-0.6c-1.6,0-2.8,0.6-3.7,1.9
		C66.2,9.3,65.8,11.3,65.8,14.1z"/>
	<path class="st0" d="M97.2,19.4c0-0.7-0.3-1.3-0.8-1.7c-0.5-0.4-1.2-0.8-1.9-1.2s-1.6-0.7-2.5-1.1c-0.9-0.4-1.8-0.9-2.5-1.4
		c-0.8-0.6-1.4-1.3-1.9-2.1c-0.5-0.8-0.8-1.9-0.8-3.2c0-1.1,0.2-2.1,0.6-2.9c0.4-0.8,0.9-1.5,1.6-2.1s1.5-1,2.5-1.2
		c0.9-0.3,2-0.4,3.2-0.4c1.3,0,2.6,0.1,3.8,0.3c1.2,0.2,2.2,0.6,2.9,1l-1.4,3.8c-0.5-0.3-1.2-0.6-2.2-0.8c-1-0.3-2-0.4-3.1-0.4
		c-1.1,0-1.9,0.2-2.4,0.6c-0.6,0.4-0.8,1-0.8,1.7c0,0.7,0.3,1.2,0.8,1.7c0.5,0.4,1.2,0.8,1.9,1.2c0.8,0.4,1.6,0.8,2.5,1.2
		c0.9,0.4,1.8,0.9,2.5,1.4c0.8,0.6,1.4,1.3,1.9,2.1c0.5,0.8,0.8,1.9,0.8,3.1c0,1.2-0.2,2.3-0.6,3.2c-0.4,0.9-1,1.6-1.7,2.2
		c-0.7,0.6-1.6,1-2.7,1.3s-2.2,0.4-3.4,0.4c-1.6,0-3.1-0.2-4.4-0.5s-2.2-0.6-2.8-0.9l1.5-3.9c0.2,0.1,0.6,0.3,0.9,0.4
		c0.4,0.2,0.8,0.3,1.3,0.4c0.5,0.1,1,0.2,1.5,0.3c0.5,0.1,1.1,0.1,1.7,0.1c1.3,0,2.4-0.2,3.1-0.7C96.8,21,97.2,20.3,97.2,19.4z"/>
	<path class="st0" d="M124.4,6.5h-6.7v19.1h-4.5V6.5h-6.8v-4h18V6.5z"/>
</g>
<g>
	<rect x="0.1" y="0.5" class="st0" width="9.2" height="9.2"/>
	<rect x="9.2" y="9.7" class="st0" width="9.2" height="9.2"/>
	<rect x="18.4" y="18.8" class="st0" width="9.2" height="9.2"/>
	<rect x="18.4" y="0.5" class="st0" width="9.2" height="9.2"/>
	<rect x="0.1" y="18.8" class="st0" width="9.2" height="9.2"/>
</g>
</svg>
