<?xml version="1.0" encoding="utf-8"?>
<!-- Generator: Adobe Illustrator 20.0.0, SVG Export Plug-In . SVG Version: 6.00 Build 0)  -->
<svg version="1.1" id="Layer_1" xmlns="http://www.w3.org/2000/svg" xmlns:xlink="http://www.w3.org/1999/xlink" x="0px" y="0px"
	 viewBox="0 0 284 49.5" style="enable-background:new 0 0 284 49.5;" xml:space="preserve">
<style type="text/css">
	.st0{fill:#FFFFFF;}
</style>
<polygon class="st0" points="283.8,48.2 160.2,48.2 160.2,1.2 283.8,1.2 258,23.5 "/>
<path class="st0" d="M1.1,2.2h14.7v10.5l8.6-10.5h17.7L26.2,23L43,47.6H25.5l-9.7-14v14H1.1V2.2z"/>
<path class="st0" d="M45.6,25c0-3.3,0.6-6.3,1.9-9.2c1.2-2.9,2.9-5.4,5.1-7.6C54.8,6,57.3,4.3,60.2,3c2.9-1.2,6-1.9,9.2-1.9
	c3.3,0,6.3,0.6,9.2,1.9c2.9,1.2,5.4,2.9,7.6,5.1c2.2,2.2,3.9,4.7,5.1,7.6c1.2,2.9,1.9,6,1.9,9.2s-0.6,6.3-1.9,9.2
	c-1.2,2.9-2.9,5.4-5.1,7.6c-2.2,2.2-4.7,3.9-7.6,5.1c-2.9,1.2-6,1.9-9.2,1.9c-3.3,0-6.3-0.6-9.2-1.9c-2.9-1.2-5.4-2.9-7.6-5.1
	c-2.2-2.2-3.9-4.7-5.1-7.6C46.3,31.3,45.6,28.2,45.6,25z M59.9,25c0,1.3,0.2,2.5,0.7,3.7c0.5,1.2,1.2,2.2,2,3c0.9,0.9,1.9,1.5,3,2
	c1.2,0.5,2.4,0.7,3.7,0.7c1.3,0,2.5-0.2,3.7-0.7c1.2-0.5,2.2-1.2,3-2c0.9-0.9,1.5-1.9,2-3c0.5-1.2,0.7-2.4,0.7-3.7
	c0-1.3-0.2-2.5-0.7-3.7c-0.5-1.2-1.2-2.2-2-3c-0.9-0.9-1.9-1.5-3-2c-1.2-0.5-2.4-0.7-3.7-0.7c-1.3,0-2.6,0.2-3.7,0.7
	c-1.2,0.5-2.2,1.2-3,2c-0.9,0.9-1.5,1.9-2,3C60.2,22.4,59.9,23.6,59.9,25z"/>
<path class="st0" d="M102.8,25c0-3.3,0.6-6.3,1.9-9.2c1.2-2.9,2.9-5.4,5.1-7.6c2.2-2.2,4.7-3.9,7.6-5.1c2.9-1.2,6-1.9,9.2-1.9
	c3.3,0,6.3,0.6,9.2,1.9c2.9,1.2,5.4,2.9,7.6,5.1c2.2,2.2,3.9,4.7,5.1,7.6c1.2,2.9,1.9,6,1.9,9.2s-0.6,6.3-1.9,9.2
	c-1.2,2.9-2.9,5.4-5.1,7.6c-2.2,2.2-4.7,3.9-7.6,5.1c-2.9,1.2-6,1.9-9.2,1.9c-3.3,0-6.3-0.6-9.2-1.9c-2.9-1.2-5.4-2.9-7.6-5.1
	c-2.2-2.2-3.9-4.7-5.1-7.6C103.4,31.3,102.8,28.2,102.8,25z M117,25c0,1.3,0.2,2.5,0.7,3.7c0.5,1.2,1.2,2.2,2,3c0.9,0.9,1.9,1.5,3,2
	c1.2,0.5,2.4,0.7,3.7,0.7c1.3,0,2.5-0.2,3.7-0.7c1.2-0.5,2.2-1.2,3-2c0.9-0.9,1.5-1.9,2-3c0.5-1.2,0.7-2.4,0.7-3.7
	c0-1.3-0.2-2.5-0.7-3.7c-0.5-1.2-1.2-2.2-2-3c-0.9-0.9-1.9-1.5-3-2c-1.2-0.5-2.4-0.7-3.7-0.7c-1.3,0-2.6,0.2-3.7,0.7
	c-1.2,0.5-2.2,1.2-3,2c-0.9,0.9-1.5,1.9-2,3C117.3,22.4,117,23.6,117,25z"/>
</svg>
